<?xml version="1.0"?><svg version="1.2" baseProfile="tiny-ps" viewBox="0 0 236 236" xmlns="http://www.w3.org/2000/svg" xmlns:xlink="http://www.w3.org/1999/xlink"><title>Your Brasdgnd/Organization</title><g><g fill="#fcfbfb" transform="matrix(.1 0 0 -.1 0 236)"><path d="M0 1180V0h2360v2360H0V1180z"/></g><g fill="#e2d3d4" transform="matrix(.1 0 0 -.1 0 236)"><path d="m169 1947-34-22-18-35-17-35 2-496 3-497 34-43c19-23 29-39 23-35l-12 7v-13c0-15 28-59 44-71 6-4 28-12 48-17l37-11 353 21c194 11 475 27 623 35 344 19 357 21 200 26l-130 3 375 6 375 5 34 24 33 24 14 33 14 33v972l-14 27c-8 15-26 38-41 52l-27 25-942 3-943 2-34-23zm611-195 35-17 3-162 2-162-30-16c-35-18-38-31-11-40 11-3 25-12 31-20l12-15-1-112-1-113 9-13 8-14 24 4 23 3 22 90c12 50 50 206 84 348l62 257h174l85-347 85-348 27-3 27-3v601h-50v100h467l32-11 32-11 14-29 15-28v-666l-8-11c-4-6-17-16-29-23l-22-11h-590l-17 58c-9 31-24 84-33 117l-17 60h-217l-19-80c-10-44-23-97-29-117l-10-38H721l-3 160-3 159-13 13-13 13-109 3-110 4V980H310v90h50v600h-50v100h435l35-18zm350-57c0-3-20-91-45-196l-45-190 5-10 6-9h169v8c1 24-76 402-82 402-5 0-8-2-8-5zm-675-37c-3-13-5-70-3-128l3-105 116-3 116-3 14 17 14 17v189l-24 19-23 19H460l-5-22zm1105-283v-307l136 4 136 3 14 19 14 20v514l-19 23-19 24-131 3-131 4v-307zm738-777c-8-7-18-20-21-29l-5-17 14-21 15-21h18c9 0 22 5 29 12l12 12v55l-19 11c-24 13-24 13-43-2zm-901-5c-4-7-21-160-19-173 0-2 5-6 11-8l11-4v34l1 33 28-32c28-34 51-43 51-21 0 7-11 23-25 38l-24 25 29 20c29 19 40 45 21 45-5 0-24-12-41-26l-31-27 7 52 7 51h-11c-6 0-13-3-15-7zm590 0c-4-3-7-15-7-25v-18h-51l-24-25-25-24v-60l16-15 15-16h77l7 53c3 28 9 71 12 95l5 42h-9c-5 0-13-3-16-7zm-17-114v-40l-27 3-28 3-3 23-4 23 12 15c7 7 21 14 31 14h19v-41zM0 581c0-5 9-31 21-58l20-48-6-32-6-33h29l7 37 7 38 29 39c29 40 37 66 20 66-4 0-21-19-36-41l-27-42-19 42c-16 37-39 55-39 32zm586 1c-4-7-19-141-18-159 0-4 5-9 10-11l10-3 8 68 7 68 31-67 30-68h33l12 87c11 87 10 100-7 89l-9-6-8-62-7-63-31 68-30 67h-13c-7 0-15-3-18-8zm307-9c-4-10-12-22-20-26-17-10-17-27 0-27h14l-5-55-4-55h51l6 11 7 10-19 5-18 5 3 40 4 39h38v30h-30v40h-10c-6 0-14-8-17-17zm623 1c-9-23-7-54 3-54 7 0 31 51 31 66 0 12-29 1-34-12zm261-6c-3-13-9-53-12-90l-7-68h102v30h-70v39l27 3 28 3 3 18 3 17h-51v40h80v30h-98l-5-22zM131 524l-21-27v-26c0-15 6-35 13-45l14-18h57l23 26 23 27v56l-18 16-19 17h-52l-20-26zm77-32 4-23-12-15-12-14h-48v56l12 12 13 13 20-3 20-3 3-23zm57 4c-4-31-5-63-1-71l5-15 46 2 45 1 5 21c2 12 6 39 7 61l3 40-10 3-10 3-10-48-10-48-24-3-23-4 4 53 3 52-12 4-11 4-7-55zm141 15c-3-20-6-51-6-68v-33h19l7 49 6 50 22 3 21 3 3 17 3 16-34-1-35-1-6-35zm345 13-21-27v-24c0-13 5-33 10-44l11-19h79v30h-59l-6 10-6 10h82l6 16 6 16-9 27-9 26-32 3-31 3-21-27zm69-19v-15h-59l5 15 6 15h48v-15zm140 21c0-13 3-44 6-70l7-46h35l18 53 18 52 2-15c2-8 5-32 9-52l6-38h34l24 66c13 36 21 68 18 71-12 11-25-8-38-54l-13-48-11 50-11 50-15 3-15 3-19-53-19-53-2 15c-2 8-5 32-9 53l-6 37h-19v-24zm217 12c-9-7-21-25-26-40l-11-28 10-25 10-26 22-8 23-9 26 14c30 15 39 33 39 74v29l-16 15-15 16h-23c-12 0-30-6-39-12zm61-55-3-38-28-3-27-3-6 16-7 16 11 25 12 24h51l-3-37zm67 57c-2-3-7-34-11-69l-7-64 14 5 14 5 5 42 5 42 24 12 24 12-4 10-4 10h-28c-16 1-30-2-32-5zm277-2c-7-7-12-23-12-36v-24l30-11c17-6 30-15 30-19v-8h-70v-30h78l12 14 12 15-4 22-3 22-33 11-33 11 7 8c4 4 20 7 36 7h28v30h-66l-12-12zm458-8c-22-22-26-45-10-55l11-7-12-14-11-14 6-15 5-15h60l6-10 6-10h-81v-20h99l11 19 10 20-16 15-15 16-32 1-32 1 34 8c36 8 51 24 51 53v17h10c6 0 10 7 10 15v15h-90l-20-20zm63-16c3-3 3-12 0-20l-5-14h-18c-22 0-34 15-25 30 7 11 38 14 48 4zm85 24c-9-7-22-26-28-41l-10-29 12-26 13-27 43-3 42-3v31h-69l-6 10-6 10h92l6 17 6 16-14 26-15 26-24 3-25 3-17-13zm60-35 4-13h-62v8c0 25 50 28 58 5z"/></g><g fill="#ce9d9f" transform="matrix(.1 0 0 -.1 0 236)"><path d="m182 1950-43-19-19-43-20-43V899l14-32 13-33 32-27 32-26 35-7 35-6 914 8 913 9 27 25c15 14 33 37 41 52l14 27v963l-16 34-16 34-32 23-31 22-925 2-925 3-43-20zm602-191 25-12 11-30 10-30v-266l-31-24-31-24 31-31 31-30v-233l27 3 28 3 81 340 81 340 91 3 90 3 84-343 84-343 27-3 27-3v591h-50v100h502l29-29 29-29v-690l-19-23-19-24-306-3-305-3-10 38c-6 21-22 76-35 123l-23 85-106 3-106 3-7-28c-9-42-34-143-45-185l-10-38H720v295l-13 25-13 25-112 3-112 3V970H310v110h50l-2 293-3 292-22-2-23-3v110h449l25-11zm307-247c-24-103-46-193-48-199l-5-13h184l-6 28c-4 15-21 102-39 194s-35 170-38 172c-3 3-25-79-48-182zm-631 33v-125h217l16 18 17 19v182l-16 15-15 16H460v-125zm1100-170v-295h266l12 12 12 12v545l-19 11-20 10h-251v-295zM313 753c20-2 54-2 75 0l37 4H275l38-4zm1084-176c-3-12-9-55-13-96l-7-74 12 7 11 7v25c0 31 5 30 39-8l29-33 7 7 7 7-26 34-26 34 32 26 33 26-17 1c-9 0-20-4-23-10-3-5-16-15-27-21l-21-11 6 45 6 46-8 5-9 6-5-23zm587-5-6-32-10 6-9 6-29-12-28-12-13-29-12-30 11-24 11-24 25-7c13-3 33-4 43-2l18 3 11 85 12 85-9 9-9 10-6-32zm-8-68c-3-9-6-29-6-45v-30l-27 3-28 3-3 18c-2 10-1 29 2 43l6 24h62l-6-16zm314 82-12-15 4-23 3-23 20-3 20-3-17 11c-20 12-24 35-8 45l10 6-6-14-5-15 11-7 12-8 8 14c5 7 6 17 3 23l-6 9 11-7c16-10 15-33 0-39l-13-4 7-8 7-7 10 7c15 8 14 48-1 63-16 16-43 15-58-2zM94 553c-16-23-32-42-36-43-3 0-12 16-18 35l-12 35H14c-18 0-18-3 6-50l20-39v-82l10 6c5 3 10 17 10 30v23l35 52c20 29 34 58 32 64l-4 11-29-42zm1423 10c-3-16-3-30-1-33 7-7 24 23 24 43 0 27-17 20-23-10zm306 19-42-3-6-42c-3-23-7-60-8-82l-2-40 48-3 47-3v31h-70v50h60v20h-23c-30 0-36 6-30 31l5 19h78v9c0 14-10 16-57 13zm-1236-9c-3-5-8-44-12-87l-8-79 11 6 10 7 7 67 7 68 34-73 34-74 12 4 13 5 11 82 10 81-10-3c-6-2-12-10-13-18s-5-36-8-64l-7-50-30 68-31 67h-13c-7 0-15-3-17-7zm306-10c-4-10-11-21-17-25l-11-8 11-7 11-8-1-50-1-50 23-3c25-4 29 6 7 22l-15 11 6 37 6 36 22 7 21 6-22 9-23 9 6 16 6 15h-11c-7 0-15-8-18-17zm-753-33c-11-11-22-31-26-45l-6-25 16-25 16-25h19c33 0 51 11 67 41l14 29-6 25-6 26-18 9c-28 15-48 12-70-10zm54-6 16-6v-66l-15-12-14-12-18 4-18 3-3 35-4 34 18 13c21 15 18 15 38 7zm569 11-21-15-7-30-7-31 16-24 16-25h70v19l-32 3-33 3-3 18-3 17h91v49l-22 15c-28 20-38 20-65 1zm55-17c7-7 12-16 12-20v-8h-70v10c0 8 28 29 41 30 3 0 10-5 17-12zm358 11-26-20v-68l16-15 15-16h48l20 26 21 27v56l-22 15c-29 21-40 20-72-5zm74-37c0-10-7-28-16-40l-16-23-21 3-22 3-3 32-3 31 22 16 22 15 19-10 18-10v-17zm343 48-23-9v-49l31-11 31-11-5-12-4-13h-63v-25h67l19 21 18 20-10 17c-6 9-21 19-34 22s-25 11-28 18l-4 12h74l-4 13c-6 15-36 19-65 7zm457-7-21-15 1-31c1-18 0-41-2-52l-3-20 43-3 42-3v-9c0-9-16-14-70-24-14-2 0-3 30-2l55 1v50l-37 3-38 3v10c0 5 8 9 18 9s28 7 40 16l22 15v49h10c6 0 10 4 10 9v8h-79l-21-14zm49-12 14-9-6-16-6-16h-51v13c0 13 19 37 30 37 3 0 11-4 19-9zm87 8-26-20v-68l16-15 15-16h58l6 10 6 10h-57l-12 12c-7 7-12 16-12 20v8h90v59l-19 11c-27 14-35 13-65-11zm48-5c9-3 16-12 16-20v-14h-35c-40 0-41 2-19 24 18 18 17 18 38 10zM266 489l-7-51 12-14 12-15 36 3 36 3 7 20c3 11 6 39 7 63l1 42h-17l-6-45c-5-53-6-54-38-57l-24-3 3 53 4 52h-19l-7-51zm140 3c-3-25-6-54-6-65v-20l8 7c4 4 12 29 17 54l10 47 23 3c12 2 22 7 22 12v9l-34-1-34-1-6-45zm560-9c11-93 25-98 57-21l21 52 11-50 10-49h28l24 63 23 64-12-4-12-4-17-50-16-49-8 40c-10 58-13 65-29 65h-14l-18-52-18-53-9 53-9 52h-19l7-57zm330-5c-9-90 10-100 22-11l7 48 23 3c12 2 22 8 22 13v9h-67l-7-62z"/></g><g fill="#ee5d62" transform="matrix(.1 0 0 -.1 0 236)"><path d="M184 1950c-11-4-33-22-47-40l-27-32V876l18-30 18-31 34-17 35-18h1840l34 18c19 9 44 30 55 45l21 28 3 486 3 486-21 41-20 41-29 18-29 17-934-1H205l-21-9zm617-199 24-19 3-155 3-156-19-19c-11-11-26-22-33-24l-14-5 33-27 32-28v-238h50l7 28c4 15 41 169 83 342l76 315 91 3 92 3 10-38c6-21 40-159 76-308 36-148 70-287 76-307l10-38h49v580h-50v110h508l26-30 25-31 6-32c4-18 5-173 3-346l-3-313-28-24-28-24-301 2-302 3-31 115-31 115-107 3-106 3-6-23c-3-13-16-66-28-118l-23-95-126-3-126-3-3 162-4 161-19 14-20 14H470V970H310v109l23 3 22 3 3 288 2 287h-50v110h468l23-19zm291-239c-23-99-42-187-42-196v-16h171l-5 18c-2 9-19 89-36 177s-34 168-38 179l-8 18-42-180zm-632 33v-125h206l22 16 22 15v186l-18 16-19 17H460v-125zm1100-170v-295h251l20 10 19 11v538l-22 15-22 16h-246v-295zm-164-822c-3-21-8-59-12-85l-6-48h22v33l1 32 29-34 30-35 6 7 7 7-21 23c-28 30-28 33 6 63l27 25-21-10c-11-5-26-17-34-25-7-9-16-16-19-16h-7l6 50 6 50h-7c-4 0-10-17-13-37zm591 15-7-28h-23c-12 0-33-7-45-16l-22-15v-67l14-11 15-12 33 3 33 3 8 60c4 33 6 71 5 85l-3 25-8-27zm-7-50c0-7-3-30-6-50l-7-38h-21c-44 0-58 38-30 78l15 22h49v-12zM21 538l22-43-1-37-2-38h20v55l35 53c20 28 32 52 27 52s-22-19-37-41l-27-42-19 42-18 41H0l21-42zm565 15c-3-16-8-52-12-82l-6-54 11 7 11 7 1 37c1 20 4 50 8 66l6 29 30-72 30-71 15 2 15 3 8 60c4 33 6 69 4 80l-3 20-8-40c-4-22-9-56-12-75l-6-35-31 73-31 72h-24l-6-27zm315 15c0-9-9-22-18-27l-18-10 13-1h14l-4-52-3-53 25-2 25-2-17 5-18 5v18c0 10 3 32 6 49l6 31 17 4 16 5-17 1-17 1-4 23-4 22-2-17zm617-13-5-25h8c5 0 9 4 9 9s3 16 6 25l6 16h-10c-5 0-12-11-14-25zm257-37c-3-35-9-71-11-80l-5-18 53 2 53 1-42 4c-45 4-46 5-37 41l6 22h24c12 0 26 5 29 10l6 10h-63l6 23c3 12 6 25 6 29s19 9 43 11l42 4-52 1-51 2-7-62zm506 36 1-19 5 13c3 7 2 16-1 19-3 4-6-2-5-13zm70 0 1-19 5 13c3 7 2 16-1 19-3 4-6-2-5-13zM137 522l-17-19v-74l23-8c25-9 44-5 70 17l17 15v63l-12 12-12 12h-53l-16-18zm73-11 10-20-10-25c-5-14-18-30-29-35l-20-11-16 16-16 17 6 26c9 35 24 51 46 51h18l11-19zm66 17c-3-7-7-29-9-49l-5-36 7-11 7-12 41 2 41 1 6 36c3 20 6 46 6 59v23l-10-6-10-6v-77l-15-12-14-12-18 4-18 4 3 52c2 49-4 68-12 40zm139-3c-2-5-6-31-10-57l-6-48h21v28c0 15 3 37 6 50l6 22h19c10 0 20 4 24 10l6 9-32-2-31-2-3-10zm341-4-17-19-1-30c-1-16 2-34 6-41l7-11 42 1 42 2-30 4c-31 5-55 19-55 34v8l47 3 48 3 3 16 3 17-16 16-16 16h-46l-17-19zm68-7c9-23-2-34-35-34h-29v9c0 5 3 16 6 25l6 16h46l6-16zm142-21c8-64 11-73 27-73h13l19 53 19 52 7-25c4-14 7-38 8-53l1-28 17 3 17 3 19 49c10 27 16 54 14 60-2 5-12-13-22-42-11-29-23-52-27-52h-8v34c0 80-23 86-52 15l-22-52-7 19c-4 11-8 34-8 52l-1 32h-20l6-47zm203 26-20-20 3-32 3-32 24-11 24-12 22 10 23 10 11 25c15 33 14 49-5 67l-15 16h-49l-21-21zm75-5c3-9 6-24 6-35v-19l-20-20-20-20-20 10-20 11v25c0 14 5 34 10 45l11 19h47l6-16zm61 1c-2-11-6-37-9-57l-5-38h17l7 50 7 50h18c11 0 21 4 25 10l6 9-31-2-31-2-4-20zm277 13c-7-7-12-18-12-26v-13l36-15 35-15-4-12-4-12-39-6-39-6 42-2 42-1 10 18 10 18-7 11c-4 6-20 15-35 18l-28 7 3 17 3 16 30 6 30 7-30 1-31 1-12-12zm468 2-15-9-1-51-1-50h26c14 0 33-5 41-10l15-9-10-10c-6-5-28-12-50-14l-40-4 49 1 49 1 11 17 10 17-7 7c-4 4-24 10-44 13l-38 6 2 10c1 6 16 13 34 17 35 7 51 25 45 50l-4 17 17 4 16 5-45 1-45 1-15-10zm55-10c3-6 3-19 0-30l-6-20h-40l-5 15c-4 8-4 22 0 30l5 15h20c11 0 23-5 26-10zm75 0-20-20v-56l12-12 12-12 36 1 35 2-35 6-35 6-3 18-3 17h91v23c0 29-18 47-47 47h-23l-20-20zm68-17 3-23h-60l-6 10-7 11 13 15 12 15 21-3 21-3 3-22z"/></g><g fill="#5c5c5c" transform="matrix(.1 0 0 -.1 0 236)"><path d="m185 1940-41-20-17-29-17-29V885l13-25c7-13 28-35 46-47l34-23 944 2 945 3 34 37 34 38v991l-16 30-15 31-42 19-42 19H225l-40-20zm616-189 29-29v-311l-25-19-26-20 26-26 25-25v-231h49l5 18c3 9 39 161 82 337 42 176 78 323 81 328l4 7h178l10-37c12-46 149-599 156-630l5-23h40v569l-22 3-23 3v110l241 3 242 2 26-10 26-10 20-32 20-33v-656l-15-29-15-30-28-7-27-8h-578l-23 80c-12 44-27 99-34 123l-11 42h-205l-30-122-30-123H715l-3 159-3 160-10 13-11 13H470l-2-172-3-173H305v120l23 3 22 3v570l-22-3-23-3-3 63-3 62h473l29-29zm296-234c-21-89-40-172-43-184l-6-23h162v8c0 13-70 355-73 358-2 2-20-70-40-159zm-637 28v-115h219l15 16 16 15v160l-10 20-11 19H460v-115zm1100-170v-285h266l12 12 12 12v507l-10 20-11 19h-269v-285zm-164-822c-3-21-8-59-12-85l-6-48h22v33l1 32 29-34 30-35 6 7 7 7-21 23c-28 30-28 33 6 63l27 25-21-10c-11-5-26-17-34-25-7-9-16-16-19-16h-7l6 50 6 50h-7c-4 0-10-17-13-37zm591 15-7-28h-23c-12 0-33-7-45-16l-22-15v-67l14-11 15-12 33 3 33 3 8 60c4 33 6 71 5 85l-3 25-8-27zm-7-50c0-7-3-30-6-50l-7-38h-21c-44 0-58 38-30 78l15 22h49v-12zM21 538l22-43-1-37-2-38h20v55l35 53c20 28 32 52 27 52s-22-19-37-41l-27-42-19 42-18 41H0l21-42zm565 15c-3-16-8-52-12-82l-6-54 11 7 11 7 1 37c1 20 4 50 8 66l6 29 30-72 30-71 15 2 15 3 8 60c4 33 6 69 4 80l-3 20-8-40c-4-22-9-56-12-75l-6-35-31 73-31 72h-24l-6-27zm315 15c0-9-9-22-18-27l-18-10 13-1h14l-4-52-3-53 25-2 25-2-17 5-18 5v18c0 10 3 32 6 49l6 31 17 4 16 5-17 1-17 1-4 23-4 22-2-17zm617-13-5-25h8c5 0 9 4 9 9s3 16 6 25l6 16h-10c-5 0-12-11-14-25zm257-37c-3-35-9-71-11-80l-5-18 53 2 53 1-42 4c-45 4-46 5-37 41l6 22h24c12 0 26 5 29 10l6 10h-63l6 23c3 12 6 25 6 29s19 9 43 11l42 4-52 1-51 2-7-62zm506 36 1-19 5 13c3 7 2 16-1 19-3 4-6-2-5-13zm70 0 1-19 5 13c3 7 2 16-1 19-3 4-6-2-5-13zM137 522l-17-19v-74l23-8c25-9 44-5 70 17l17 15v63l-12 12-12 12h-53l-16-18zm73-11 10-20-10-25c-5-14-18-30-29-35l-20-11-16 16-16 17 6 26c9 35 24 51 46 51h18l11-19zm66 17c-3-7-7-29-9-49l-5-36 7-11 7-12 41 2 41 1 6 36c3 20 6 46 6 59v23l-10-6-10-6v-77l-15-12-14-12-18 4-18 4 3 52c2 49-4 68-12 40zm139-3c-2-5-6-31-10-57l-6-48h21v28c0 15 3 37 6 50l6 22h19c10 0 20 4 24 10l6 9-32-2-31-2-3-10zm341-4-17-19-1-30c-1-16 2-34 6-41l7-11 42 1 42 2-30 4c-31 5-55 19-55 34v8l47 3 48 3 3 16 3 17-16 16-16 16h-46l-17-19zm68-7c9-23-2-34-35-34h-29v9c0 5 3 16 6 25l6 16h46l6-16zm142-21c8-64 11-73 27-73h13l19 53 19 52 7-25c4-14 7-38 8-53l1-28 17 3 17 3 19 49c10 27 16 54 14 60-2 5-12-13-22-42-11-29-23-52-27-52h-8v34c0 80-23 86-52 15l-22-52-7 19c-4 11-8 34-8 52l-1 32h-20l6-47zm203 26-20-20 3-32 3-32 24-11 24-12 22 10 23 10 11 25c15 33 14 49-5 67l-15 16h-49l-21-21zm75-5c3-9 6-24 6-35v-19l-20-20-20-20-20 10-20 11v25c0 14 5 34 10 45l11 19h47l6-16zm61 1c-2-11-6-37-9-57l-5-38h17l7 50 7 50h18c11 0 21 4 25 10l6 9-31-2-31-2-4-20zm277 13c-7-7-12-18-12-26v-13l36-15 35-15-4-12-4-12-39-6-39-6 42-2 42-1 10 18 10 18-7 11c-4 6-20 15-35 18l-28 7 3 17 3 16 30 6 30 7-30 1-31 1-12-12zm468 2-15-9-1-51-1-50h26c14 0 33-5 41-10l15-9-10-10c-6-5-28-12-50-14l-40-4 49 1 49 1 11 17 10 17-7 7c-4 4-24 10-44 13l-38 6 2 10c1 6 16 13 34 17 35 7 51 25 45 50l-4 17 17 4 16 5-45 1-45 1-15-10zm55-10c3-6 3-19 0-30l-6-20h-40l-5 15c-4 8-4 22 0 30l5 15h20c11 0 23-5 26-10zm75 0-20-20v-56l12-12 12-12 36 1 35 2-35 6-35 6-3 18-3 17h91v23c0 29-18 47-47 47h-23l-20-20zm68-17 3-23h-60l-6 10-7 11 13 15 12 15 21-3 21-3 3-22z"/></g><g fill="#ee1920" transform="matrix(.1 0 0 -.1 0 236)"><path d="m185 1940-41-20-17-29-17-29V885l13-25c7-13 28-35 46-47l34-23 944 2 945 3 34 37 34 38v991l-16 30-15 31-42 19-42 19H225l-40-20zm616-189 29-29v-311l-25-19-26-20 26-26 25-25v-231h49l5 18c3 9 39 161 82 337 42 176 78 323 81 328l4 7h178l10-37c12-46 149-599 156-630l5-23h40v569l-22 3-23 3v110l241 3 242 2 26-10 26-10 20-32 20-33v-656l-15-29-15-30-28-7-27-8h-578l-23 80c-12 44-27 99-34 123l-11 42h-205l-30-122-30-123H715l-3 159-3 160-10 13-11 13H470l-2-172-3-173H305v120l23 3 22 3v570l-22-3-23-3-3 63-3 62h473l29-29zm296-234c-21-89-40-172-43-184l-6-23h162v8c0 13-70 355-73 358-2 2-20-70-40-159zm-637 28v-115h219l15 16 16 15v160l-10 20-11 19H460v-115zm1100-170v-285h266l12 12 12 12v507l-10 20-11 19h-269v-285z"/></g></g></svg>