<?xml version="1.0" encoding="utf-8"?>
<svg width="236" height="163" xmlns:v="https://vecta.io/nano" version="1.2" baseProfile="tiny-ps" xmlns="http://www.w3.org/2000/svg">
  <title>SVG(2)</title>
  <path d="M39.58 1.482l5.373-.021 14.547.002 15.247-.006 25.602.021 29.57-.007 25.42-.01 15.168-.006 14.262.02 5.224-.005C206.801 1.392 206.801 1.392 213 6c4.597 4.914 4.57 9.398 4.502 15.781l.016 2.934-.022 9.57.004 6.664-.034 13.953-.013 17.882-.013 13.756-.001 6.594-.035 9.213.014 2.751c-.069 5.878-1.076 9.185-4.98 13.714C211 120 211 120 209 120l-1 2-3 1-.812 1.813c-1.765 3.252-3.976 4.403-7.187 6.188-5.682 1.644-11.179 2.499-17.062 3l-2.825.248c-10.934.902-21.891 1.398-32.848 1.927l-49.03 2.86-6.009.379-2.732.18c-4.877.306-9.718.46-14.605.409-2.461-.003-4.878.193-7.327.435-11.689 1.034-23.39 1.653-35.125 1.813l-2.449.065c-6.615.038-13.003-1.037-18.363-5.127C-.69 124.649 3.353 108.237 5 93.812l.578-5.197L7 76h1l1 28 .028-8.242.156-26.99.087-16.36.097-15.795.024-6.02.062-8.445-.015-2.502C9.535 14.263 10.347 10.109 14 6 21.443.319 30.644 1.437 39.58 1.482zM10 112l1 2zm1 2l1 2z" fill="#ed1d24" />
  <path d="M31 22l18.951-.165 6.445-.062 9.271-.067 2.905-.047c4.974-.001 8.401.072 12.427 3.34 3.441 3.441 2.304 8.401 2.322 13.049l-.007 2.182.046 6.584.002 4.182.009 3.849C83 58 83 58 81.665 59.938 80 61 80 61 77 61l2.438 2.438C83 67 83 67 83.114 69.317l-.016 3.031-.01 3.271-.025 3.443-.014 3.455L83 91h6l.27-3.535c.794-7.104 2.685-13.982 4.418-20.902l2.172-8.809.549-2.224 5.776-24.872.687-3.033.592-2.648C104 23 104 23 105 22c1.343-.086 2.69-.107 4.035-.098l2.451.01 2.576.025 2.588.014L123 22c3.575 12.159 6.557 24.424 9.397 36.775l6.181 25.463C140 89.801 140 89.801 140 92h5V33h-5V22l20.605-.22 7.007-.082 10.083-.089 3.154-.063c5.863-.002 9.632.295 14.151 4.453 2.245 3.44 2.258 6.38 2.275 10.433l.029 3.954-.003 4.265.013 4.386.002 9.187.034 11.755.012 9.057.016 4.333-.006 6.067.002 3.483c-.417 3.436-1.32 5.32-3.374 8.08-2.725 1.362-4.868 1.12-7.918 1.114h-3.761l-4.078-.016-4.162-.004-10.959-.025-11.18-.02L130 102l-.805-3.254-1.07-4.309-.527-2.135-.527-2.119-.476-1.92c-.814-3.102-1.713-6.18-2.594-9.263l-21-1-2.543 12.804-.485 2.431-.492 2.476c-.443 2.108-.958 4.2-1.481 6.29H72l-.148-6.711-.169-6.424-.104-4.47-.164-6.419-.095-3.904C71.315 70.895 71.315 70.895 69 69c-2.325-.371-2.325-.371-5.008-.414l-2.692-.108-3.425-.103L47 68v34H31V92h5V33h-5V22z" fill="#fef9f9" />
  <path d="M7 76h1l.06 2.412.315 10.963.094 3.793c-.018 12.71-.018 12.71 4.969 23.895 4.231 3.199 7.974 3.089 13.06 3.096l2.334.015 7.766.032 5.558.03 15.111.068 15.783.076 29.898.138 34.033.16L207 121c-4.282 6.697-7.955 9.704-15.782 11.554-3.74.752-7.483 1.123-11.281 1.446l-2.825.248c-10.934.902-21.891 1.398-32.848 1.927l-49.03 2.86-6.009.379-2.732.18c-4.877.306-9.718.46-14.605.409-2.461-.003-4.878.193-7.327.435-11.689 1.034-23.39 1.653-35.125 1.813l-2.449.065c-6.615.038-13.003-1.037-18.363-5.127C-.69 124.649 3.353 108.237 5 93.813l.578-5.197L7 76z" fill="#261f20" />
  <path d="M156 33h27c2.576 2.576 2.253 3.573 2.259 7.152l.019 3.256-.012 3.529.006 3.609-.011 7.566.013 11.614-.008 7.336.012 3.529-.019 3.256-.005 2.875C185 89 185 89 183 91h-27V33z" fill="#ec1a22" />
  <path d="M46 33l11.375-.125 3.583-.055 2.815-.015 2.888-.032C69 33 69 33 71 35c.446 3.125.324 6.284.313 9.438l.049 2.643.002 2.541.009 2.326C71 54 71 54 69.796 55.755c-2.413 1.672-3.982 1.588-6.902 1.538l-2.684-.023-3.398-.083L46 57V33z" fill="#ed1b23" />
  <path d="M113 30c5.249 10.129 9 27.56 9 39h-17c.659-8.382 2.604-16.41 4.563-24.562l.998-4.213L113 30z" fill="#ed1f26" />
  <path d="M92 140l1 2-1 3h6l2 7 3-7h4l2 6 2-6h3c-.72 4.609-2.313 8.672-4 13h-4l-2-7-3 7h-4l-2-11-3 1-1 8h3v2h-6v-10h-2v-3h3v-4l3-1z" fill="#3f3e3f" />
  <path d="M58 141l5 1c1.875 2.843 2.78 5.791 4 9l2-10h3l-.437 6.25-.246 3.516c-.249 2.544-.598 4.794-1.316 7.234-2.355-.184-2.355-.184-5-1-1.898-3.181-2.794-6.471-4-10l-2 11-3 1 2-18z" fill="#3f3f40" />
  <path d="M215 144l1 3-2 1-.75 2.438C212 153 212 153 208.875 154.313L206 155l8 2-1 5c-2.405 1.203-3.95 1.101-6.625 1.063l-2.477-.027L202 163v-2l8-1-8-2-.187-4.812-.105-2.707c.293-2.48.293-2.48 1.48-4.262 2.369-1.593 4.165-1.722 7-1.906l2.73-.199L215 144zm-8 3l-2 4 4 1 2-4-4-1z" fill="#3e3e3f" />
  <path d="M198 140h3l-.437 7.313-.119 2.092c-.193 3.067-.467 5.665-1.443 8.596-6.227 1.317-6.227 1.317-9.437 0-1.562-2-1.562-2-2.062-5.437.5-3.562.5-3.562 2.125-6 2.978-1.959 4.879-1.88 8.375-1.562v-5zm-5.687 8.188c-1.731 2.39-1.616 3.925-1.312 6.813 1.066 1.296 1.066 1.296 3.563 1.063L197 156v-9c-2.935-.288-2.935-.288-4.687 1.188z" fill="#3f3e3f" />
  <path d="M214 6c4.227 1.51 5.831 4.185 8 8 3.536 10.607-.163 23.352-2 34h-1l-.044-3.026-.218-11.171-.084-4.824-.142-6.956-.019-2.16C218.356 15.192 217.346 12.021 215 8l-1-2z" fill="#231f20" />
  <path d="M180.285 140.902l2.777.035 2.785.027L188 141l-1 3h-7v4h6v3h-7v5h8v2h-11l.438-7.937.119-2.287c.392-6.73.392-6.73 3.729-6.873z" fill="#3e3d3e" />
  <path d="M225 145c1.875 1.188 1.875 1.188 3 3 .188 2.688.188 2.688 0 5l-9 1v2h7l-1 3-3.875-.312-2.18-.176C217 158 217 158 215 155c.182-3.39.395-6.013 2.188-8.937 2.723-1.596 4.722-1.449 7.813-1.062zm-5 2l-1 3h6l-1-3h-4zm-137-2c2 2 2 2 2.125 5.125L85 153h-9l1 2 7 1v2c-6.227 1.317-6.227 1.317-9.437 0C73 156 73 156 72.5 152.563c.5-3.562.5-3.562 2.125-6 3.025-1.99 4.819-2.026 8.375-1.562zm-5 2l-2 3h6l-1-3h-3z" fill="#3f3f40" />
  <path d="M139 140h3v9l1.75-2c2.25-2 2.25-2 6.25-2v2l-5 3 4 9c-2.972-1.125-5.334-2.223-8-4l-1 3-3 1 2-19z" fill="#3f3e3f" />
  <path d="M125 145c2.063 2.125 2.063 2.125 3 5-.615 3.419-1.422 5.36-3.75 7.938-3.135 1.481-4.979 1.058-8.25.063-2-3-2-3-1.812-6.5.813-3.5.813-3.5 1.938-5.437 3.087-1.749 5.422-1.556 8.875-1.062zm-5 2c-2.468 3.344-2.468 3.344-2.687 7.313L118 156c3.291-.379 3.291-.379 6-2v-6l-4-1z" fill="#3d3d3e" />
  <path d="M22 145c2.327 3.491 2.503 4.892 2 9-1.959 2.684-3.395 3.773-6.5 4.938C15 159 15 159 12.688 158 11 156 11 156 10.5 152.563c.5-3.562.5-3.562 2.063-6 3.329-2.134 5.562-2.065 9.438-1.562zm-6 2c-2.152 3.228-2.201 4.284-2 8l5 1c2.152-3.228 2.201-4.284 2-8l-5-1zm11-2h3l-1 11 5-1 1-10h3l-1 13c-8.75 1.125-8.75 1.125-11 0l-.062-4.812-.035-2.707C26 148 26 148 27 145z" fill="#3f3e3f" />
  <path d="M0 141h3c1.461 2.647 2 3.894 2 7h2l.875-2.375C9 143 9 143 11 141h3c-1.148 2.487-2.404 4.568-4 6.813-2.182 3.142-2.182 3.142-3.062 7L6 158l-3 1 .105-1.758C3.29 151.922 2.696 148.718 0 144v-3z" fill="#3e3e3f" />
  <path d="M166 145l-1 3-5 1 6 3c-.312 2.375-.312 2.375-1 5-3.85 2.567-5.586 1.833-10 1v-2l3.438-.375L162 155l1-2-6-1c-.687-1.812-.687-1.812-1-4 2.298-4.022 5.816-3.237 10-3z" fill="#3e3d3e" />
  <path d="M46 33h21v1H48v21h17v1l-19 1V33z" fill="#ec1019" />
  <path d="M10 51h1l.018 2.162.218 20.214.111 10.391.142 11.959.019 3.751c.118 6.91.367 12.05 5.18 17.398L18 118l-1 2c-3.28-2.417-5.544-4.167-7-8-.241-2.797-.241-2.797-.227-6.054v-3.7l.031-3.981.009-4.086.049-10.732.04-10.96L10 51z" fill="#c01d23" />
  <path d="M230 139c4.556.556 4.556.556 6 2v6l-5 2c-2.062-1.75-2.062-1.75-4-4 .178-3.018.837-3.837 3-6zm-1 4l1 2zm5 0l1 2z" fill="#3e3e3f" />
  <path d="M48 144l1 2-1 2h-5l.188 3.813c.021 3.91.021 3.91-1.687 6.188l-1.5 1c-1.158-3.475-.773-5.137-.062-8.687l.59-3.012L41 145l7-1z" fill="#3d3c3d" />
  <path d="M130 145h8l-1 3h-4l-1 10h-3c-.077-4.516-.102-8.591 1-13z" fill="#3f3e3f" />
  <path d="M113 30c1.952 3.904 2.506 6.722 3 11l-5 1 2-12z" fill="#ee2a30" />
  <path d="M11 109l2 3 2.625 3.188L18 118l-1 2c-2.437-1.562-2.437-1.562-5-4-.812-3.75-.812-3.75-1-7z" fill="#d51c23" />
  <path d="M206 3c6.702 1.936 6.702 1.936 9 5v2l-10-5 1-2z" fill="#c71c23" />
  <path d="M153 140h2l-1 6-3 1c-.125-2.375-.125-2.375 0-5l2-2z" fill="#3f3e3f" />
</svg>