<svg xmlns="http://www.w3.org/2000/svg" width="295" height="295" baseProfile="tiny-ps" xmlns:v="https://vecta.io/nano"><path fill="#ec1e24" d="M247.5 64.5c0 .667.333 1 1 1 .209 1.422.709 2.755 1.5 4a2499 2499 0 0 1 0 100c-2.01 4.864-5.177 7.864-9.5 9-63.001.167-126.001 0-189-.5-.544-.717-1.211-1.217-2-1.5h-1c0-.667-.333-1-1-1 0-.667-.333-1-1-1 0-.667-.333-1-1-1 .172-.992-.162-1.658-1-2 .172-.992-.162-1.658-1-2l.5-99c1.783-5.657 5.616-9.157 11.5-10.5h183c3.306.986 6.306 2.486 9 4.5z"/><path d="M247.5 64.5c.06-.543.393-.876 1-1 6.805 6.122 9.305 13.789 7.5 23a235.4 235.4 0 0 1-3 19l-1-34c-.424-2.525-1.59-4.525-3.5-6-.667 0-1-.333-1-1z"/><path fill="#fff9f9" d="M115.5 124.5v25c2.235.295 4.235-.039 6-1l16.5-68a47.66 47.66 0 0 1 9.5-1c3.439.054 6.606.72 9.5 2l16.5 67c1.419.951 3.085 1.284 5 1 .33-19.84-.003-39.507-1-59h-4v-11c16.337-.167 32.67 0 49 .5 3.833 1.167 6.333 3.667 7.5 7.5a1055.97 1055.97 0 0 1 0 65c-.406 2.994-1.906 5.161-4.5 6.5a620.87 620.87 0 0 1-61-.5 148.13 148.13 0 0 1-6.5-22c-7.109-1.312-14.276-1.312-21.5 0-2.46 7.506-4.127 15.173-5 23h-26c.166-10.339 0-20.672-.5-31l-2.5-2.5a242.43 242.43 0 0 0-22-.5v34h-16v-10h5c.33-19.84-.003-39.507-1-59h-4v-11c16.071-.454 32.071.046 48 1.5l3.5 3.5a240.38 240.38 0 0 1 0 31c-1.42 1.922-3.253 3.255-5.5 4 1.894 1.445 3.56 3.112 5 5z"/><path fill="#f47175" d="M68.5 90.5c.997 19.493 1.33 39.16 1 59h-5c1.068-.934 2.401-1.268 4-1v-58z"/><path fill="#ec1a22" d="M79.5 90.5a264.91 264.91 0 0 1 23 .5c.626.75 1.126 1.584 1.5 2.5a81.21 81.21 0 0 1 0 18 4.59 4.59 0 0 1-2.5 2.5 242.43 242.43 0 0 1-22 .5v-24z"/><path fill="#f26065" d="M177.5 90.5c.997 19.493 1.33 39.16 1 59-1.915.284-3.581-.049-5-1h4v-58z"/><path fill="#ec1a22" d="M189.5 90.5c9.006-.166 18.006 0 27 .5l1.5 1.5c.667 18 .667 36 0 54l-1.5 1.5c-8.994.5-17.994.666-27 .5v-58z"/><path fill="#ed2526" d="M155.5 126.5c-6.098.617-11.765-.05-17-2 2.219-12.543 5.219-24.876 9-37l8 39z"/><path fill="#f8adaf" d="M138.5 124.5c5.235 1.95 10.902 2.617 17 2-5.81.99-11.81 1.323-18 1-.237-1.291.096-2.291 1-3z"/><path fill="#fdd2d3" d="M115.5 124.5c.992 7.816 1.326 15.816 1 24h5c-1.765.961-3.765 1.295-6 1v-25z"/><path fill="#010101" d="M42.5 168.5c-3.825 16.662 2.841 25.662 20 27l162-10.5c3.133-.86 5.8-2.36 8-4.5 7.272-.525 7.938 1.308 2 5.5-3.698 2.122-7.698 3.455-12 4l-114 7.5c-1.6-.051-3.1-.384-4.5-1-4.333 1.396-8.5 2.062-12.5 2-12.667.567-25.334.734-38 .5-7.858-.861-13.025-5.027-15.5-12.5-.859-3.448-1.359-6.948-1.5-10.5l4.5-42.5 1.5 35z"/><path fill="#291f22" d="M42.5 168.5c0 .667.333 1 1 1-.172.992.162 1.658 1 2-.172.992.162 1.658 1 2 .667 0 1 .333 1 1 .667 0 1 .333 1 1 .667 0 1 .333 1 1 .333 1.333.667 1.333 1 0 .789.283 1.456.783 2 1.5l189 .5c-17.162.832-34.495 1.332-52 1.5 14.663.5 29.33.667 44 .5-2.2 2.14-4.867 3.64-8 4.5l-162 10.5c-17.159-1.338-23.825-10.338-20-27z"/><path fill="#3f3e3f" d="M263.5 196.5c5.489.004 7.322 2.671 5.5 8-4.203 2.658-7.037 1.491-8.5-3.5.815-1.643 1.815-3.143 3-4.5z"/><path fill="#3e3e3e" d="M171.5 204.5c.968-2.107 1.302-4.441 1-7h3l-.5 10 4.5-4.5c1.444-.781 2.777-.614 4 .5-2.409 1.201-4.409 2.867-6 5a26 26 0 0 0 5 7c-3.507.398-6.007-1.269-7.5-5-.61 2.522-1.943 4.522-4 6l.5-12z"/><path d="M231.5 197.5h3c-.338 5.542-1.005 11.042-2 16.5-3.53 3.308-7.03 3.142-10.5-.5-1.314-7.52 1.853-11.187 9.5-11v-5zm-4 7h3c-.204 3.045-.204 5.879 0 8.5-3.362 1.293-5.362.293-6-3 .113-2.399 1.113-4.232 3-5.5zm-194-6c1.175-.219 2.175.114 3 1l3 6a74.22 74.22 0 0 0 5-6.5c1.135-.749 2.135-.583 3 .5-4.404 4.072-7.071 9.072-8 15a11.39 11.39 0 0 1-2.5 2c-.562-2.366-.396-4.699.5-7a74.84 74.84 0 0 1-4-11zm58 0c1.644-.214 3.144.12 4.5 1l5 12a121.16 121.16 0 0 0 1.5-13h3l-2 17c-1.644.214-3.144-.12-4.5-1l-5-12a111.54 111.54 0 0 1-1.5 11c-.368 1.41-1.201 2.41-2.5 3a323.08 323.08 0 0 1 1.5-18z" fill="#3f3f3f"/><path fill="#434242" d="M186.5 197.5c.997-.03 1.664.47 2 1.5-.354 2.264-1.354 4.098-3 5.5-1.346-2.6-1.012-4.933 1-7z"/><path d="M211.5 198.5a25.88 25.88 0 0 1 10 1c-.209.586-.543 1.086-1 1.5-2.31.497-4.643.663-7 .5v4h6v3h-7v5a16.87 16.87 0 0 1 8 1c-3.607.989-7.274 1.323-11 1 .097-5.777.764-11.443 2-17zm-163 4c8.387-.587 10.887 3.08 7.5 11-5.797 4.621-9.631 3.455-11.5-3.5-.07-3.366 1.264-5.866 4-7.5zm1 2c5.236.49 6.403 3.157 3.5 8-3.111 1.772-4.944.939-5.5-2.5a13.02 13.02 0 0 1 2-5.5z" fill="#3e3e3f"/><path fill="#403f40" d="M60.5 202.5h3c-.744 3.619-1.077 7.285-1 11 1.431.079 2.764-.254 4-1 1.097-3.253 1.764-6.586 2-10h3c-.58 4.31-.913 8.643-1 13-3.269-.064-6.602-.064-10 0-1.134-4.331-1.134-8.664 0-13z"/><path fill="#3f3f3f" d="M81.5 201.5c1.153.813 1.153 1.813 0 3a7.11 7.11 0 0 1-5 1 32.44 32.44 0 0 1-.5 8 6.54 6.54 0 0 1-3 3c-.146-4.827.687-9.494 2.5-14 .586.209 1.086.543 1.5 1 1.623-.599 3.123-1.266 4.5-2z"/><path fill="#3f3f40" d="M110.5 202.5c6.333-1 9 1.667 8 8-11.588-.054-11.922 1.279-1 4-3.735 2.757-7.235 2.424-10.5-1-1.337-4.628-.17-8.295 3.5-11zm1 2c1.846-.278 3.18.389 4 2-1.921 1.141-3.921 1.308-6 .5.881-.708 1.547-1.542 2-2.5z"/><path fill="#3e3e3f" d="M125.5 197.5c.596 1.435.596 3.102 0 5 2.292-.256 4.459.077 6.5 1l1 9a49.18 49.18 0 0 1 3.5-9 4.85 4.85 0 0 1 4-1c.714 13.193 2.048 13.193 4 0h3a126.41 126.41 0 0 1-4 12c-1.333 1.333-2.667 1.333-4 0-.73-2.609-1.23-5.276-1.5-8l-3.5 8a4.85 4.85 0 0 1-4 1l-1.5-12-4 2a32.46 32.46 0 0 0-.5 8c1.175-.219 2.175.114 3 1a9.86 9.86 0 0 1-6 1c-.289-3.606.044-7.106 1-10.5-.949-.617-1.782-.451-2.5.5-.483-.948-.649-1.948-.5-3h3v-4c1.291.237 2.291-.096 3-1z"/><path fill="#403f40" d="M151.5 202.5c8.221-.958 11.055 2.376 8.5 10-5.69 5.866-9.856 5.033-12.5-2.5.427-3.023 1.761-5.523 4-7.5zm2 2c2.988-.345 4.321.988 4 4 .136 2.862-1.198 4.529-4 5-1.667-.333-2.667-1.333-3-3 .629-2.241 1.629-4.241 3-6z"/><path fill="#3e3e3f" d="M171.5 204.5c-1.695.511-3.361 1.178-5 2a23.83 23.83 0 0 0-1 9h-3c.086-4.357.42-8.69 1-13 2.097.853 4.097.853 6 0 1.213.247 1.88.914 2 2z"/><path fill="#3f3f3f" d="M192.5 202.5h7c.435 3.113-.565 3.779-3 2a10.26 10.26 0 0 0-4 1.5 34.1 34.1 0 0 0 6 3c1.44 4.592-.393 7.092-5.5 7.5a5.72 5.72 0 0 1-4.5-2c2.266-.814 4.6-1.314 7-1.5.457-.414.791-.914 1-1.5a34.2 34.2 0 0 1-6.5-3c-.542-2.582.292-4.582 2.5-6z"/><path fill="#3e3e3f" d="M248.5 201.5c.904.709 1.237 1.709 1 3-2.442-.381-3.109.286-2 2a10.94 10.94 0 0 1-3 4.5c-2.215.17-4.215.837-6 2 2.724.27 5.391.77 8 1.5 1.145 1.276 1.145 2.609 0 4-3.435 2.158-7.101 2.492-11 1 11.006-1.271 11.339-2.604 1-4 .112-3.288-.055-6.621-.5-10l2.5-2.5c3.525-.179 6.859-.679 10-1.5zm-8 3c4.831.766 4.998 2.432.5 5-3.073-1.248-3.24-2.915-.5-5z"/><path fill="#3f3f40" d="M252.5 202.5c6.502-1.161 9.502 1.505 9 8-3.35-.165-6.683.002-10 .5 2.251 1.871 4.917 3.037 8 3.5-.209.586-.543 1.086-1 1.5-5.495 1.303-8.829-.697-10-6 .427-3.023 1.761-5.523 4-7.5zm1 2c2.165-.384 3.832.283 5 2-2 1.333-4 1.333-6 0 .363-.683.696-1.35 1-2z"/></svg>